<?xml version="1.0" encoding="utf-8"?>
<!-- Generator: Adobe Illustrator 19.0.0, SVG Export Plug-In . SVG Version: 6.00 Build 0)  -->
<svg version="1.1" id="Layer_1" xmlns="http://www.w3.org/2000/svg" xmlns:xlink="http://www.w3.org/1999/xlink" x="0px" y="0px"
	 viewBox="-281.8 401 200 200" style="enable-background:new -281.8 401 200 200;" xml:space="preserve">
<style type="text/css">
	.st0{fill:#242424;}
	.st1{fill:#E2243F;}
</style>
<path class="st0" d="M-227.2,543.5l-4.9,36.2c-0.8,5.6,3.2,10.8,8.8,11.5c5.6,0.8,10.8-3.2,11.5-8.8l4.9-36.2L-227.2,543.5z"/>
<path class="st0" d="M-136.4,543.5l4.9,36.2c0.8,5.6-3.2,10.8-8.8,11.5c-5.6,0.8-10.8-3.2-11.5-8.8l-4.9-36.2L-136.4,543.5z"/>
<path class="st0" d="M-181.8,411.6c-42.4,0-76.8,34.4-76.8,76.8c0,42.4,34.4,76.8,76.8,76.8s76.8-34.4,76.8-76.8
	C-105,446-139.4,411.6-181.8,411.6z M-181.8,545.3c-31.4,0-56.9-25.5-56.9-56.9c0-31.4,25.5-56.9,56.9-56.9s56.9,25.5,56.9,56.9
	C-124.9,519.8-150.4,545.3-181.8,545.3z"/>
<path class="st1" d="M-181.8,467.2c-11.7,0-21.2,9.5-21.2,21.2c0,11.7,9.5,21.2,21.2,21.2c11.7,0,21.2-9.5,21.2-21.2
	C-160.6,476.7-170.1,467.2-181.8,467.2z M-169.8,485.9c-3.5,0-6.3-2.8-6.3-6.3c0-3.5,2.8-6.3,6.3-6.3s6.3,2.8,6.3,6.3
	C-163.5,483.1-166.3,485.9-169.8,485.9z"/>
</svg>
