<?xml version="1.0" encoding="utf-8"?>
<!-- Generator: Adobe Illustrator 19.0.0, SVG Export Plug-In . SVG Version: 6.00 Build 0)  -->
<svg version="1.1" id="Layer_1" xmlns="http://www.w3.org/2000/svg" xmlns:xlink="http://www.w3.org/1999/xlink" x="0px" y="0px"
	 viewBox="0 0 50 50" style="enable-background:new 0 0 50 50;" xml:space="preserve">
<style type="text/css">
	.st0{fill:#232323;}
</style>
<g id="XMLID_4_">
	<path id="XMLID_5_" class="st0" d="M25,0C15.9,0,8.5,7.4,8.5,16.5c0,3.7,2.3,9.7,7.2,18.3c3.4,6.1,6.8,11.2,6.9,11.4L25,50l2.5-3.7
		c0.1-0.2,3.5-5.3,6.9-11.4c4.8-8.6,7.2-14.6,7.2-18.3C41.5,7.4,34.1,0,25,0z M25,25c-4.7,0-8.6-3.8-8.6-8.6s3.8-8.6,8.6-8.6
		s8.6,3.8,8.6,8.6S29.7,25,25,25z"/>
</g>
</svg>
