<?xml version="1.0" encoding="utf-8"?>
<!-- Generator: Adobe Illustrator 19.0.0, SVG Export Plug-In . SVG Version: 6.00 Build 0)  -->
<svg version="1.1" id="Layer_1" xmlns="http://www.w3.org/2000/svg" xmlns:xlink="http://www.w3.org/1999/xlink" x="0px" y="0px"
	 viewBox="0 0 50 50" style="enable-background:new 0 0 50 50;" xml:space="preserve">
<style type="text/css">
	.st0{fill:#232323;}
</style>
<g id="XMLID_6_">
	<path id="XMLID_7_" class="st0" d="M49.1,37.5c0,1.1-0.3,2-0.8,2.9l-15.2-17l15-13.2c0.6,0.9,0.9,2,0.9,3.2L49.1,37.5L49.1,37.5z
		 M25,26.5L45.9,8.2c-0.9-0.5-1.8-0.8-2.9-0.8H6.9c-1,0-2,0.3-2.9,0.8L25,26.5z M30.8,25.4L26,29.6c-0.3,0.2-0.6,0.4-1,0.4
		c-0.4,0-0.7-0.1-1-0.4l-4.8-4.2L3.8,42.6c0.9,0.6,2,0.9,3.2,0.9h36.1c1.2,0,2.3-0.3,3.2-0.9L30.8,25.4z M1.9,10.2
		c-0.6,0.9-0.9,2-0.9,3.2v24.1c0,1.1,0.3,2,0.8,2.9l15.2-17L1.9,10.2z"/>
</g>
</svg>
