<?xml version="1.0" encoding="utf-8"?>
<!-- Generator: Adobe Illustrator 19.0.0, SVG Export Plug-In . SVG Version: 6.00 Build 0)  -->
<svg version="1.1" id="Layer_1" xmlns="http://www.w3.org/2000/svg" xmlns:xlink="http://www.w3.org/1999/xlink" x="0px" y="0px"
	 viewBox="0 0 50 50" style="enable-background:new 0 0 50 50;" xml:space="preserve">
<style type="text/css">
	.st0{fill:#232323;}
</style>
<g id="XMLID_2_">
	<g id="XMLID_4_">
		<path id="XMLID_7_" class="st0" d="M37.7,32.9c-1.6-1.6-3.6-1.6-5.2,0c-1.2,1.2-2.4,2.4-3.6,3.6c-0.3,0.3-0.6,0.4-1,0.2
			c-0.8-0.4-1.6-0.8-2.4-1.2c-3.5-2.2-6.4-5-9-8.2c-1.3-1.6-2.4-3.3-3.2-5.2c-0.2-0.4-0.1-0.6,0.2-1c1.2-1.2,2.4-2.4,3.6-3.6
			c1.7-1.7,1.7-3.6,0-5.3c-0.9-1-1.9-1.9-2.8-2.8c-1-1-1.9-2-2.9-2.9c-1.6-1.6-3.6-1.6-5.2,0c-1.2,1.2-2.4,2.4-3.6,3.6
			c-1.1,1.1-1.7,2.4-1.8,4c-0.2,2.5,0.4,4.9,1.3,7.2c1.8,4.8,4.5,9.1,7.8,13c4.5,5.3,9.8,9.5,16,12.5c2.8,1.4,5.7,2.4,8.9,2.6
			c2.2,0.1,4.1-0.4,5.6-2.1c1-1.2,2.2-2.2,3.3-3.3c1.6-1.6,1.6-3.6,0-5.3C41.6,36.7,39.6,34.8,37.7,32.9z"/>
		<path id="XMLID_6_" class="st0" d="M35.8,24.8l3.7-0.6c-0.6-3.4-2.2-6.6-4.7-9c-2.6-2.6-5.9-4.3-9.5-4.8l-0.5,3.8
			c2.8,0.4,5.4,1.7,7.4,3.7C34.1,19.7,35.3,22.1,35.8,24.8z"/>
		<path id="XMLID_3_" class="st0" d="M41.6,8.5c-4.3-4.3-9.8-7.1-15.8-7.9l-0.5,3.8c5.2,0.7,9.9,3.1,13.7,6.8
			c3.5,3.5,5.9,8,6.7,12.9l3.7-0.6C48.4,17.8,45.7,12.6,41.6,8.5z"/>
	</g>
</g>
</svg>
