<?xml version="1.0" encoding="utf-8"?>
<!-- Generator: Adobe Illustrator 19.0.0, SVG Export Plug-In . SVG Version: 6.00 Build 0)  -->
<svg version="1.1" id="Layer_1" xmlns="http://www.w3.org/2000/svg" xmlns:xlink="http://www.w3.org/1999/xlink" x="0px" y="0px"
	 viewBox="0 0 100 100" style="enable-background:new 0 0 100 100;" xml:space="preserve">
<style type="text/css">
	.st0{fill:#232323;}
</style>
<path id="XMLID_2_" class="st0" d="M91.6,18.8l-8.9,6.7c-0.2,0.2-0.5,0.3-0.8,0.3c-0.4,0-0.8-0.2-1.1-0.6c-0.5-0.6-0.3-1.5,0.3-1.9
	l5.9-4.4h-5.1L73,25.4c-0.2,0.2-0.5,0.3-0.8,0.3c-0.4,0-0.8-0.2-1.1-0.6c-0.5-0.6-0.3-1.5,0.3-1.9l5.9-4.4h-5.1l-8.9,6.7
	c-0.2,0.2-0.5,0.3-0.8,0.3c-0.4,0-0.8-0.2-1.1-0.6c-0.5-0.6-0.3-1.5,0.3-1.9l5.9-4.4h-5.1l-8.9,6.7c-0.2,0.2-0.5,0.3-0.8,0.3
	c-0.4,0-0.8-0.2-1.1-0.6c-0.5-0.6-0.3-1.5,0.3-1.9l5.9-4.4h-5.1l-8.9,6.7c-0.2,0.2-0.5,0.3-0.8,0.3c-0.4,0-0.8-0.2-1.1-0.6
	c-0.5-0.6-0.3-1.5,0.3-1.9l5.9-4.4h-5.1l-8.9,6.7c-0.2,0.2-0.5,0.3-0.8,0.3c-0.4,0-0.8-0.2-1.1-0.6c-0.5-0.6-0.3-1.5,0.3-1.9
	l5.9-4.4h-5.1l-8.9,6.7c-0.2,0.2-0.5,0.3-0.8,0.3c-0.4,0-0.8-0.2-1.1-0.6c-0.5-0.6-0.3-1.5,0.3-1.9l5.9-4.4h-5.1l-8.9,6.7
	c-0.2,0.2-0.5,0.3-0.8,0.3c-0.4,0-0.8-0.2-1.1-0.6c-0.5-0.6-0.3-1.5,0.3-1.9l5.9-4.4H8.4v62.4h0.3l8.5-6.6c0.6-0.5,1.5-0.4,1.9,0.2
	c0.5,0.6,0.4,1.5-0.2,1.9l-5.7,4.5h5.2l8.5-6.6c0.6-0.5,1.5-0.4,1.9,0.2c0.5,0.6,0.4,1.5-0.2,1.9l-5.7,4.5h5.2l8.5-6.6
	c0.6-0.5,1.5-0.4,1.9,0.2c0.5,0.6,0.4,1.5-0.2,1.9l-5.7,4.5h5.2l8.5-6.6c0.6-0.5,1.5-0.4,1.9,0.2c0.5,0.6,0.4,1.5-0.2,1.9l-5.7,4.5
	h5.2l8.5-6.6c0.6-0.5,1.5-0.4,1.9,0.2c0.5,0.6,0.4,1.5-0.2,1.9l-5.7,4.5h5.2l8.5-6.6c0.6-0.5,1.5-0.4,1.9,0.2
	c0.5,0.6,0.4,1.5-0.2,1.9l-5.7,4.5H67l8.5-6.6c0.6-0.5,1.5-0.4,1.9,0.2c0.5,0.6,0.4,1.5-0.2,1.9l-5.7,4.5h5.2l8.5-6.6
	c0.6-0.5,1.5-0.4,1.9,0.2c0.5,0.6,0.4,1.5-0.2,1.9l-5.7,4.5h10.4V18.8L91.6,18.8z M19.5,35.4h11.1c0.8,0,1.4,0.6,1.4,1.4
	s-0.6,1.4-1.4,1.4H19.5c-0.8,0-1.4-0.6-1.4-1.4S18.7,35.4,19.5,35.4z M47.2,52.1H19.5c-0.8,0-1.4-0.6-1.4-1.4s0.6-1.4,1.4-1.4h27.7
	c0.8,0,1.4,0.6,1.4,1.4S48,52.1,47.2,52.1z M47.2,45.1H19.5c-0.8,0-1.4-0.6-1.4-1.4s0.6-1.4,1.4-1.4h27.7c0.8,0,1.4,0.6,1.4,1.4
	S48,45.1,47.2,45.1z M81.9,49.3H68V35.4h13.9V49.3z"/>
</svg>
