<?xml version="1.0" encoding="utf-8"?>
<!-- Generator: Adobe Illustrator 19.0.0, SVG Export Plug-In . SVG Version: 6.00 Build 0)  -->
<svg version="1.1" id="Layer_1" xmlns="http://www.w3.org/2000/svg" xmlns:xlink="http://www.w3.org/1999/xlink" x="0px" y="0px"
	 viewBox="0 0 100 100" style="enable-background:new 0 0 100 100;" xml:space="preserve">
<style type="text/css">
	.st0{fill:#232323;}
</style>
<g id="XMLID_8_">
	<g id="XMLID_9_">
		<path id="XMLID_6_" class="st0" d="M50,47.3c7.4,0,13.4-6,13.4-13.3c0-7.4-6-13.3-13.4-13.3c-7.4,0-13.3,6-13.3,13.3
			C36.7,41.3,42.7,47.3,50,47.3z"/>
		<path id="XMLID_5_" class="st0" d="M60.8,49.4H39.4c-3.8,0-7,3.5-7,7.8v21.5c0,0.2,0.1,0.4,0.1,0.7h35c0-0.2,0.1-0.5,0.1-0.7V57.2
			C67.7,52.9,64.6,49.4,60.8,49.4z"/>
		<path id="XMLID_4_" class="st0" d="M86,53.6c5.9,0,10.7-4.8,10.7-10.7S91.9,32.2,86,32.2c-5.9,0-10.7,4.8-10.7,10.7
			C75.3,48.8,80.1,53.6,86,53.6z"/>
		<path id="XMLID_3_" class="st0" d="M94.6,55.4H77.4c-3.1,0-5.6,2.8-5.6,6.3v17.2c0,0.2,0.1,0.4,0.1,0.6H100c0-0.2,0.1-0.4,0.1-0.6
			V61.6C100.1,58.2,97.6,55.4,94.6,55.4z"/>
		<path id="XMLID_2_" class="st0" d="M14.1,53.6c5.9,0,10.7-4.8,10.7-10.7s-4.8-10.7-10.7-10.7C8.2,32.2,3.5,37,3.5,42.9
			S8.2,53.6,14.1,53.6L14.1,53.6z"/>
		<path id="XMLID_1_" class="st0" d="M22.7,55.4H5.6c-3.1,0-5.6,2.8-5.6,6.3v17.2c0,0.2,0.1,0.4,0.1,0.6h28.1c0-0.2,0.1-0.4,0.1-0.6
			V61.6C28.3,58.2,25.8,55.4,22.7,55.4z"/>
	</g>
</g>
</svg>
