<?xml version="1.0" encoding="utf-8"?>
<!-- Generator: Adobe Illustrator 19.0.0, SVG Export Plug-In . SVG Version: 6.00 Build 0)  -->
<svg version="1.1" id="Layer_1" xmlns="http://www.w3.org/2000/svg" xmlns:xlink="http://www.w3.org/1999/xlink" x="0px" y="0px"
	 viewBox="0 0 100 100" style="enable-background:new 0 0 100 100;" xml:space="preserve">
<style type="text/css">
	.st0{fill:#232323;}
</style>
<g id="XMLID_2_">
	<path id="XMLID_7_" class="st0" d="M30.5,34.2H30c2-1.7,2.8-4.5,2.4-7.4c-0.5-4.4-3.2-12.6-8.9-15.3c-0.6-0.3-1.3-0.2-1.7,0.2
		c-0.5,0.4-0.7,1.1-0.5,1.7c2.6,9.3-3.2,14-2.2,17.4c0.4,1.4,1.3,2.6,2.3,3.5h-0.5c-1.1,0-1.9,0.9-1.9,1.9s0.9,1.9,1.9,1.9h0.5
		l2.1,46.3c0.1,1.1,1,2.1,2.1,2.1c1.2,0.1,2.3-0.9,2.3-2.1L30,38.1h0.5c1.1,0,1.9-0.9,1.9-1.9S31.6,34.2,30.5,34.2z"/>
	<path id="XMLID_6_" class="st0" d="M41.7,82.8c0,2.1,1.7,3.7,3.7,3.7s3.7-1.7,3.7-3.7L49.3,28h-7.6L41.7,82.8z"/>
	<path id="XMLID_5_" class="st0" d="M45.5,11c-0.4,0-0.7,0.2-0.8,0.6l-3,8.5v4.2h7.6v-4.2l-3-8.5C46.1,11.3,45.8,11,45.5,11z"/>
	<path id="XMLID_4_" class="st0" d="M59.3,70.9c0,2.5,2.1,4.6,4.6,4.6h0.1v2.2c0,0.8,0.6,1.5,1.3,1.6v5.7c0,0.6,0.3,1.2,0.9,1.4
		c0.5,0.3,1.2,0.2,1.7-0.1l3.3-2.4c0.4-0.3,0.7-0.8,0.7-1.3v-3.3c0.8-0.1,1.3-0.8,1.3-1.6v-2.2h0.1c2.5,0,4.6-2.1,4.6-4.6V37.5H59.3
		V70.9z"/>
	<path id="XMLID_3_" class="st0" d="M82.4,31.1H80v-7.8c0-6.3-5.1-11.4-11.4-11.4c-6.3,0-11.4,5.1-11.4,11.4v7.8
		c-1,0-1.9,0.8-1.9,1.9s0.8,1.9,1.9,1.9h23.2v15.9c0,1,0.8,1.9,1.9,1.9s1.9-0.8,1.9-1.9V32.9C84.2,31.9,83.4,31.1,82.4,31.1z"/>
</g>
</svg>
