<?xml version="1.0" encoding="utf-8"?>
<!-- Generator: Adobe Illustrator 19.0.0, SVG Export Plug-In . SVG Version: 6.00 Build 0)  -->
<svg version="1.1" id="Layer_1" xmlns="http://www.w3.org/2000/svg" xmlns:xlink="http://www.w3.org/1999/xlink" x="0px" y="0px"
	 viewBox="0 0 100 100" style="enable-background:new 0 0 100 100;" xml:space="preserve">
<style type="text/css">
	.st0{fill:#232323;}
</style>
<g id="XMLID_2_">
	<path id="XMLID_3_" class="st0" d="M64.1,78.4l-1,4.1c-3,1.2-5.5,2.1-7.3,2.7c-1.8,0.6-3.9,0.9-6.3,0.9c-3.7,0-6.5-0.9-8.6-2.7
		c-2-1.8-3.1-4.1-3.1-6.8c0-1.1,0.1-2.2,0.2-3.3c0.2-1.1,0.4-2.4,0.7-3.8l3.8-13.4c0.3-1.3,0.6-2.5,0.9-3.7c0.2-1.1,0.3-2.2,0.3-3.1
		c0-1.7-0.4-2.9-1.1-3.6c-0.7-0.7-2.1-1-4.1-1c-1,0-2,0.2-3,0.5c-1,0.3-1.9,0.6-2.7,0.9l1-4.1c2.5-1,4.9-1.9,7.1-2.6
		c2.3-0.7,4.4-1.1,6.4-1.1c3.6,0,6.5,0.9,8.4,2.6c2,1.8,3,4,3,6.9c0,0.6-0.1,1.6-0.2,3.1c-0.1,1.5-0.4,2.8-0.8,4l-3.8,13.4
		c-0.3,1.1-0.6,2.3-0.8,3.7c-0.2,1.4-0.4,2.4-0.4,3.1c0,1.8,0.4,3,1.2,3.6c0.8,0.6,2.2,1,4.1,1c0.9,0,2-0.2,3.1-0.5
		C62.7,78.9,63.5,78.6,64.1,78.4z M65,22.3c0,2.3-0.9,4.3-2.6,5.9c-1.8,1.6-3.9,2.5-6.4,2.5c-2.5,0-4.6-0.8-6.4-2.5
		c-1.8-1.6-2.7-3.6-2.7-5.9c0-2.3,0.9-4.3,2.7-6c1.8-1.7,3.9-2.5,6.4-2.5c2.5,0,4.6,0.8,6.4,2.5C64.1,18,65,20,65,22.3z"/>
</g>
</svg>
