<?xml version="1.0" encoding="iso-8859-1"?>
<!-- Generator: Adobe Illustrator 18.0.0, SVG Export Plug-In . SVG Version: 6.00 Build 0)  -->
<!DOCTYPE svg PUBLIC "-//W3C//DTD SVG 1.1//EN" "http://www.w3.org/Graphics/SVG/1.1/DTD/svg11.dtd">
<svg version="1.1" id="Capa_1" xmlns="http://www.w3.org/2000/svg" xmlns:xlink="http://www.w3.org/1999/xlink" x="0px" y="0px"
	 viewBox="0 0 303.032 303.032" style="enable-background:new 0 0 303.032 303.032;" xml:space="preserve">
<g>
	<path d="M67.13,92.991h-2.285c8.02-6.769,11.036-18.233,9.655-29.878C72.398,45.329,61.823,12.407,38.895,1.723
		c-2.313-1.078-5.04-0.712-6.987,0.937c-1.946,1.648-2.755,4.277-2.074,6.735c10.284,37.172-12.819,56.247-8.777,69.733
		c1.708,5.696,5.076,10.437,9.412,13.863H28.27c-4.292,0-7.771,3.479-7.771,7.771s3.479,7.771,7.771,7.771h2.119l8.344,185.923
		c0.219,4.577,3.896,8.355,8.564,8.565c4.952,0.222,9.147-3.613,9.369-8.565l8.344-185.923h2.12c4.292,0,7.771-3.479,7.771-7.771
		S71.422,92.991,67.13,92.991z"/>
	<path d="M111.954,288.031c0,8.284,6.716,15,15,15s15-6.716,15-15l0.333-220.006h-30.666L111.954,288.031z"/>
	<path d="M126.954,0c-1.42,0-2.687,0.893-3.163,2.23l-12.17,34.128v17h30.666v-17L130.117,2.23C129.641,0.893,128.374,0,126.954,0z"
		/>
	<path d="M182.62,240.129c0,10.217,8.282,18.499,18.499,18.499h0.501v8.857c0,3.185,2.303,5.829,5.333,6.37v22.698
		c0,2.439,1.37,4.672,3.545,5.776s4.786,0.893,6.755-0.546l13.044-9.532c1.67-1.22,2.656-3.163,2.656-5.229v-13.166
		c3.031-0.542,5.334-3.186,5.334-6.371v-8.857h0.501c10.217,0,18.499-8.282,18.499-18.499V106.218H182.62V240.129z"/>
	<path d="M275.033,80.459h-9.479V49.234c0-25.186-20.416-45.602-45.602-45.602c-25.185,0-45.601,20.416-45.601,45.601v31.226
		c-4.143,0-7.5,3.357-7.5,7.5c0,4.143,3.357,7.5,7.5,7.5h93.181v63.836c0,4.143,3.357,7.5,7.5,7.5s7.5-3.357,7.5-7.5V87.959
		C282.533,83.816,279.176,80.459,275.033,80.459z"/>
</g>
<g>
</g>
<g>
</g>
<g>
</g>
<g>
</g>
<g>
</g>
<g>
</g>
<g>
</g>
<g>
</g>
<g>
</g>
<g>
</g>
<g>
</g>
<g>
</g>
<g>
</g>
<g>
</g>
<g>
</g>
</svg>
