<?xml version="1.0" encoding="iso-8859-1"?>
<!-- Generator: Adobe Illustrator 18.0.0, SVG Export Plug-In . SVG Version: 6.00 Build 0)  -->
<!DOCTYPE svg PUBLIC "-//W3C//DTD SVG 1.1//EN" "http://www.w3.org/Graphics/SVG/1.1/DTD/svg11.dtd">
<svg version="1.1" id="Capa_1" xmlns="http://www.w3.org/2000/svg" xmlns:xlink="http://www.w3.org/1999/xlink" x="0px" y="0px"
	 viewBox="0 0 60 60" style="enable-background:new 0 0 60 60;" xml:space="preserve">
<path d="M60,7.5l-6.4,4.8c-0.18,0.135-0.391,0.2-0.599,0.2c-0.304,0-0.604-0.138-0.801-0.4c-0.332-0.441-0.242-1.068,0.2-1.399
	l4.267-3.2H53l-6.4,4.8c-0.18,0.135-0.391,0.2-0.599,0.2c-0.304,0-0.604-0.138-0.801-0.4c-0.332-0.441-0.242-1.068,0.2-1.399
	l4.267-3.2H46l-6.4,4.8c-0.18,0.135-0.391,0.2-0.599,0.2c-0.304,0-0.604-0.138-0.801-0.4c-0.332-0.441-0.242-1.068,0.2-1.399
	l4.267-3.2H39l-6.4,4.8c-0.18,0.135-0.391,0.2-0.599,0.2c-0.304,0-0.604-0.138-0.801-0.4c-0.332-0.441-0.242-1.068,0.2-1.399
	l4.267-3.2H32l-6.4,4.8c-0.18,0.135-0.391,0.2-0.599,0.2c-0.304,0-0.604-0.138-0.801-0.4c-0.332-0.441-0.242-1.068,0.2-1.399
	l4.267-3.2H25l-6.4,4.8c-0.18,0.135-0.391,0.2-0.599,0.2c-0.304,0-0.604-0.138-0.801-0.4c-0.332-0.441-0.242-1.068,0.2-1.399
	l4.267-3.2H18l-6.4,4.8c-0.18,0.135-0.391,0.2-0.599,0.2c-0.304,0-0.604-0.138-0.801-0.4c-0.332-0.441-0.242-1.068,0.2-1.399
	l4.267-3.2H11l-6.4,4.8c-0.18,0.135-0.391,0.2-0.599,0.2c-0.304,0-0.604-0.138-0.801-0.4c-0.332-0.441-0.242-1.068,0.2-1.399
	l4.267-3.2H0v45h0.229l6.157-4.789C6.82,47.37,7.449,47.45,7.79,47.886c0.339,0.437,0.26,1.064-0.176,1.403L3.485,52.5h3.743
	l6.157-4.789c0.434-0.341,1.063-0.261,1.403,0.175c0.339,0.437,0.26,1.064-0.176,1.403L10.485,52.5h3.743l6.157-4.789
	c0.434-0.341,1.063-0.261,1.403,0.175c0.339,0.437,0.26,1.064-0.176,1.403L17.485,52.5h3.743l6.157-4.789
	c0.434-0.341,1.063-0.261,1.403,0.175c0.339,0.437,0.26,1.064-0.176,1.403L24.485,52.5h3.743l6.157-4.789
	c0.434-0.341,1.063-0.261,1.403,0.175c0.339,0.437,0.26,1.064-0.176,1.403L31.485,52.5h3.743l6.157-4.789
	c0.434-0.341,1.064-0.261,1.403,0.175c0.339,0.437,0.26,1.064-0.176,1.403L38.485,52.5h3.743l6.157-4.789
	c0.434-0.341,1.063-0.261,1.403,0.175c0.339,0.437,0.26,1.064-0.176,1.403L45.485,52.5h3.743l6.157-4.789
	c0.435-0.341,1.063-0.261,1.403,0.175c0.339,0.437,0.26,1.064-0.176,1.403L52.485,52.5H60L60,7.5L60,7.5z M8,19.5h8
	c0.552,0,1,0.447,1,1s-0.448,1-1,1H8c-0.552,0-1-0.447-1-1S7.448,19.5,8,19.5z M28,31.5H8c-0.552,0-1-0.447-1-1s0.448-1,1-1h20
	c0.552,0,1,0.447,1,1S28.552,31.5,28,31.5z M28,26.5H8c-0.552,0-1-0.447-1-1s0.448-1,1-1h20c0.552,0,1,0.447,1,1
	S28.552,26.5,28,26.5z M53,29.5H43v-10h10V29.5z"/>
<g>
</g>
<g>
</g>
<g>
</g>
<g>
</g>
<g>
</g>
<g>
</g>
<g>
</g>
<g>
</g>
<g>
</g>
<g>
</g>
<g>
</g>
<g>
</g>
<g>
</g>
<g>
</g>
<g>
</g>
</svg>
